<?xml version="1.0" encoding="UTF-8" standalone="no"?>
<svg
   xmlns:dc="http://purl.org/dc/elements/1.1/"
   xmlns:cc="http://creativecommons.org/ns#"
   xmlns:rdf="http://www.w3.org/1999/02/22-rdf-syntax-ns#"
   xmlns:svg="http://www.w3.org/2000/svg"
   xmlns="http://www.w3.org/2000/svg"
   viewBox="0 0 841.88977 595.27557"
   id="svg37"
   height="595.27557"
   width="841.88977"
   version="1.1">
  <metadata
     id="metadata43">
    <rdf:RDF>
      <cc:Work
         rdf:about="">
        <dc:format>image/svg+xml</dc:format>
        <dc:type
           rdf:resource="http://purl.org/dc/dcmitype/StillImage" />
      </cc:Work>
    </rdf:RDF>
  </metadata>
  <defs
     id="defs41" />
  <g
     id="Layer1000">
    <g
       id="Layer1001">
      <path
         id="path2"
         style="fill:#e00000;fill-rule:evenodd"
         d="m 19.2395,60.2375 212.7234,89.2359 58.3938,119.6794 131.8074,-65.654 47.755,16.211 -59.708,17.9881 -56.401,161.5035 -153.8626,76.6285 -31.6821,15.7774 25.0952,-71.4928 -149.2341,-217.7399 49.1842,10.9175 z" />
      <path
         id="path4"
         style="fill:#c00000;fill-rule:evenodd"
         d="m 236.6121,295.9228 92.7763,-46.2121 92.7759,-46.2118 -34.1767,97.8511 -34.1773,97.8514 -92.7763,46.2121 -92.776,46.2121 34.1771,-97.8514 z" />
      <path
         id="path6"
         style="fill:#e00000;fill-rule:evenodd"
         d="M 168.2579,491.6255 422.1645,203.4988 236.6122,295.9229 Z" />
      <path
         id="path8"
         style="fill:#e00000;fill-rule:evenodd"
         d="m 410.2112,237.6978 59.708,-17.9879 -47.7684,-16.1956 z" />
      <path
         id="path10"
         style="fill:#c00000;fill-rule:evenodd"
         d="m 205.1824,473.2339 -36.9232,47.4329 -0.001,-29.0413 z" />
      <path
         id="path12"
         style="fill:#e00000;fill-rule:evenodd"
         d="M 353.8102,399.2016 275.3511,410.1189 231.9632,149.4732 Z" />
      <path
         id="path14"
         style="fill:#e00000;fill-rule:evenodd"
         d="m 231.963,149.4732 -105.4551,-44.2377 66.8524,314.878 z" />
      <path
         id="path16"
         style="fill:#c00000;fill-rule:evenodd"
         d="M 19.2396,60.2374 88.4895,89.287 193.3603,420.1135 Z" />
      <path
         id="path18"
         style="fill:#e00000;fill-rule:evenodd"
         d="m 43.7865,202.1152 49.5043,11.1729 100.0691,206.8253 z" />
      <path
         id="path20"
         style="fill:#1b1918;fill-opacity:0;fill-rule:evenodd"
         d="M 75.9296,209.3702 193.3599,420.1134 93.2907,213.288 Z" />
      <path
         id="path22"
         style="fill:#c00000;fill-rule:evenodd"
         d="m 234.5329,416.4184 40.8185,-6.2992 -43.3879,-260.6458 z" />
      <g
         id="Layer1002" />
      <path
         id="path25"
         style="fill:#1b1918;fill-opacity:0;fill-rule:evenodd"
         d="M 290.3568,269.1529 353.81,399.2014 299.678,264.5098 Z" />
      <path
         id="path27"
         style="fill:#1b1918;fill-opacity:0;fill-rule:evenodd"
         d="m 205.1822,473.2338 -7.9419,10.1309 -28.9824,8.2611 z" />
      <path
         id="path29"
         style="fill:#1b1918;fill-opacity:0;fill-rule:evenodd"
         d="m 410.2112,237.6977 11.9396,-34.1833 -3.9944,31.7902 z" />
    </g>
    <path
       id="path32"
       style="fill:#e00000;fill-rule:evenodd"
       d="m 474.3439,322.5359 c -4.9382,0 -9.1973,1.2345 -12.7777,3.7038 -3.5802,2.4689 -6.1109,5.6789 -7.5923,9.6295 -0.6174,1.8519 -1.0494,4.0125 -1.2963,6.4814 5.8022,-2.0987 11.5739,-4.2284 17.3146,-6.3887 5.7407,-2.1605 11.5123,-4.2902 17.3149,-6.389 -1.7286,-2.0988 -3.6729,-3.7961 -5.8335,-5.0924 -2.1605,-1.2963 -4.5368,-1.9446 -7.1297,-1.9446 z m 32.5925,15.7408 c -8.3948,3.0864 -16.759,6.1727 -25.0923,9.2591 -8.3333,3.0863 -16.6975,6.173 -25.0925,9.2593 1.8518,2.5926 4.2899,4.6605 7.3148,6.2037 3.0245,1.5432 6.4505,2.3147 10.2775,2.3147 5.6792,0 10.3706,-1.9751 14.0741,-5.9258 l 9.4444,11.111 c -3.0863,3.0863 -6.6047,5.4938 -10.5553,7.2224 -3.9507,1.7283 -8.2718,2.5925 -12.9632,2.5925 -5.1851,0 -10.0306,-0.9569 -14.5369,-2.8703 -4.5062,-1.9137 -8.426,-4.5372 -11.7592,-7.8704 -3.3333,-3.3333 -5.9567,-7.1915 -7.8704,-11.5742 -1.9134,-4.3826 -2.8704,-9.1048 -2.8704,-14.1667 0,-4.9382 0.957,-9.6295 2.8704,-14.074 1.9137,-4.4444 4.5371,-8.3024 7.8704,-11.5738 3.3332,-3.2718 7.253,-5.8644 11.7592,-7.7777 4.5063,-1.9137 9.3518,-2.8704 14.5369,-2.8704 3.8274,0 7.5002,0.7716 11.0186,2.3148 3.5186,1.5431 6.6668,3.6728 9.4445,6.3887 2.7776,2.7161 5.216,5.9567 7.3148,9.7223 2.0987,3.7655 3.7037,7.8704 4.8146,12.3148 z m 43.6697,44.6295 c -6.6665,-12.3457 -13.3333,-24.6297 -19.9998,-36.8518 -6.6666,-12.2221 -13.3334,-24.5061 -19.9999,-36.8518 h 15.3703 c 1.9752,3.7037 4.1358,7.5308 6.4814,11.4814 2.3457,3.9507 4.6605,7.9013 6.9444,11.852 2.2841,3.9506 4.3826,7.9319 6.2963,11.9443 1.9136,4.0125 3.5495,7.9937 4.9073,11.9444 1.2348,-3.9507 2.8395,-7.9319 4.8149,-11.9444 1.9752,-4.0124 4.1049,-7.9937 6.3888,-11.9443 2.2841,-3.9507 4.568,-7.9013 6.8519,-11.852 2.2838,-3.9506 4.4753,-7.7777 6.5741,-11.4814 h 15.3703 c -6.6665,12.3457 -13.3333,24.6297 -19.9999,36.8518 -6.6668,12.2221 -13.3333,24.5061 -20.0001,36.8518 z m 38.4846,-39.0742 c 0,-4.9382 0.957,-9.6295 2.8703,-14.074 1.9137,-4.4444 4.5372,-8.3024 7.8704,-11.5738 3.3333,-3.2718 7.253,-5.8644 11.7593,-7.7777 4.5062,-1.9137 9.3518,-2.8704 14.5369,-2.8704 5.1854,0 10.0618,0.9567 14.6296,2.8704 4.568,1.9133 8.5187,4.5059 11.8519,7.7777 3.3333,3.2714 5.9568,7.1294 7.8704,11.5738 1.9134,4.4445 2.8704,9.1358 2.8704,14.074 0,5.0619 -0.957,9.7841 -2.8704,14.1667 -1.9136,4.3827 -4.5371,8.2409 -7.8704,11.5742 -3.3332,3.3332 -7.2839,5.9567 -11.8519,7.8704 -4.5678,1.9134 -9.4442,2.8703 -14.6296,2.8703 -5.1851,0 -10.0307,-0.9569 -14.5369,-2.8703 -4.5063,-1.9137 -8.426,-4.5372 -11.7593,-7.8704 -3.3332,-3.3333 -5.9567,-7.1915 -7.8704,-11.5742 -1.9133,-4.3826 -2.8703,-9.1048 -2.8703,-14.1667 z m 15.3706,0.1854 c 0,2.9628 0.5553,5.7407 1.6664,8.3333 1.1112,2.5926 2.6235,4.8456 4.5372,6.7592 1.9134,1.9137 4.1666,3.426 6.7592,4.5372 2.5926,1.1109 5.3702,1.6664 8.3333,1.6664 2.963,0 5.7407,-0.5555 8.3333,-1.6664 2.5925,-1.1112 4.8764,-2.6235 6.8519,-4.5372 1.9752,-1.9136 3.5183,-4.1666 4.6295,-6.7592 1.1112,-2.5926 1.6668,-5.3705 1.6668,-8.3333 0,-2.963 -0.5556,-5.7407 -1.6668,-8.3333 -1.1112,-2.5925 -2.6543,-4.8767 -4.6295,-6.8519 -1.9755,-1.9752 -4.2594,-3.5186 -6.8519,-4.6295 -2.5926,-1.1112 -5.3703,-1.6668 -8.3333,-1.6668 -2.9631,0 -5.7407,0.5556 -8.3333,1.6668 -2.5926,1.1109 -4.8458,2.6543 -6.7592,4.6295 -1.9137,1.9752 -3.426,4.2594 -4.5372,6.8519 -1.1111,2.5926 -1.6664,5.3703 -1.6664,8.3333 z m 81.2622,34.6295 H 670.3532 V 239.7583 h 15.3703 z m 83.114,1.6667 h -15.3703 v -11.1112 l 0.5554,-8.3333 c -2.469,5.9258 -6.4506,10.6481 -11.9444,14.1667 -5.4938,3.5184 -11.5739,5.2778 -18.2407,5.2778 -7.2839,0 -13.0246,-1.9136 -17.2221,-5.7407 -4.1976,-3.8273 -6.4197,-8.8274 -6.6665,-15.0001 v -50.3702 h 15.3702 v 43.3332 c 0.2469,3.3333 1.4505,6.2036 3.6111,8.6111 2.1606,2.4075 5.5865,3.7346 10.2779,3.9815 3.2096,0 6.2654,-0.5555 9.1664,-1.6667 2.9012,-1.1112 5.4632,-2.6544 7.6852,-4.6296 2.2221,-1.9752 4.0125,-4.3208 5.3703,-7.037 1.3581,-2.7161 2.0372,-5.6789 2.0372,-8.8889 v -33.7036 h 15.3703 z m 12.1882,-97.9628 c 0,-2.8394 0.9876,-5.1851 2.963,-7.037 1.9752,-1.8518 4.1976,-2.7776 6.6665,-2.7776 2.3457,0 4.5063,0.9258 6.4815,2.7776 1.9754,1.8519 2.963,4.1976 2.963,7.037 0,2.8395 -0.9876,5.1543 -2.963,6.9446 -1.9752,1.7901 -4.1358,2.685 -6.4815,2.685 -2.4689,0 -4.6913,-0.8949 -6.6665,-2.685 -1.9754,-1.7903 -2.963,-4.1051 -2.963,-6.9446 z m 17.037,96.2961 h -15.3703 v -69.4443 h 15.3703 z" />
    <path
       id="path34"
       style="fill:#1b1918;fill-rule:evenodd"
       d="m 443.0741,388.4388 h 5.8958 v 16.694 h 6.9614 v 5.7541 h -6.9614 v 21.5243 h -5.8958 v -21.5243 h -5.9679 v -5.7541 h 5.9679 z m 39.5393,22.4481 c -1.8948,0 -3.5285,0.4736 -4.9012,1.421 -1.3738,0.9463 -2.3448,2.1783 -2.9131,3.6939 -0.2362,0.71 -0.4028,1.5393 -0.4973,2.4855 2.2256,-0.8045 4.4399,-1.6213 6.6419,-2.4506 2.203,-0.8281 4.4162,-1.645 6.6429,-2.4506 -0.6638,-0.8056 -1.4098,-1.4559 -2.2379,-1.9533 -0.8293,-0.4973 -1.7407,-0.7459 -2.7353,-0.7459 z m 12.5028,6.0376 c -3.2202,1.1848 -6.4292,2.3684 -9.6258,3.5521 -3.1966,1.1837 -6.4055,2.3685 -9.6257,3.5521 0.7111,0.9947 1.6461,1.7879 2.8061,2.3798 1.1601,0.5918 2.4743,0.8877 3.9426,0.8877 2.1783,0 3.9786,-0.7572 5.3985,-2.2728 l 3.623,4.2621 c -1.1836,1.1837 -2.5327,2.1074 -4.0483,2.7701 -1.5156,0.6639 -3.1729,0.9947 -4.9732,0.9947 -1.9893,0 -3.8481,-0.3668 -5.5763,-1.1004 -1.7283,-0.7348 -3.2326,-1.7406 -4.5108,-3.02 -1.2793,-1.2781 -2.2852,-2.7577 -3.0188,-4.4398 -0.7347,-1.681 -1.1015,-3.4925 -1.1015,-5.4346 0,-1.8936 0.3668,-3.6939 1.1015,-5.3985 0.7336,-1.7046 1.7395,-3.1853 3.0188,-4.4399 1.2782,-1.2545 2.7825,-2.2492 4.5108,-2.9839 1.7282,-0.7336 3.587,-1.1004 5.5763,-1.1004 1.4683,0 2.877,0.2959 4.2272,0.8877 1.3491,0.5919 2.5575,1.4087 3.623,2.4506 1.0656,1.0419 2.0006,2.2852 2.8051,3.7299 0.8056,1.4447 1.4211,3.0189 1.8475,4.7235 z m 33.9979,8.5962 c 0.6154,0.7572 1.2084,1.5032 1.7766,2.238 0.5682,0.7336 1.16,1.4795 1.7755,2.2368 -1.2309,0.9474 -2.5924,1.6933 -4.0843,2.2379 -1.492,0.5446 -3.0908,0.8169 -4.7955,0.8169 -1.9893,0 -3.848,-0.3668 -5.5763,-1.1004 -1.7282,-0.7348 -3.2326,-1.7406 -4.5107,-3.02 -1.2793,-1.2781 -2.2852,-2.7577 -3.0188,-4.4398 -0.7348,-1.681 -1.1016,-3.4925 -1.1016,-5.4346 0,-1.8936 0.3668,-3.6939 1.1016,-5.3985 0.7336,-1.7046 1.7395,-3.1853 3.0188,-4.4399 1.2781,-1.2545 2.7825,-2.2492 4.5107,-2.9839 1.7283,-0.7336 3.587,-1.1004 5.5763,-1.1004 1.7519,0 3.3868,0.2723 4.9012,0.8168 1.5156,0.5446 2.8895,1.2906 4.1204,2.238 -0.6155,0.7572 -1.2309,1.4908 -1.8464,2.2019 -0.6155,0.71 -1.2321,1.4447 -1.8475,2.202 -1.5156,-1.1364 -3.2911,-1.7046 -5.3277,-1.7046 -2.4629,0 -4.4635,0.7696 -6.0027,2.3088 -1.5392,1.5392 -2.3088,3.4925 -2.3088,5.8598 0,2.3212 0.7696,4.2745 2.3088,5.861 1.5392,1.5865 3.5398,2.3797 6.0027,2.3797 2.0838,0 3.8593,-0.5918 5.3277,-1.7755 z m 20.928,-19.7488 h 5.1859 v 0.6391 c 0.0945,1.1364 0.1777,2.167 0.2486,3.0908 0.0709,0.9226 0.1542,1.9533 0.2487,3.0897 0.9474,-2.2729 2.4742,-4.0844 4.5816,-5.4346 2.1075,-1.349 4.4399,-2.0241 6.9974,-2.0241 2.7949,0 4.9969,0.7336 6.607,2.2019 1.6101,1.4684 2.4629,3.3856 2.5575,5.7541 v 19.3224 h -5.897 v -16.6231 c -0.0945,-1.2782 -0.5558,-2.3798 -1.3851,-3.3035 -0.8281,-0.9227 -2.1423,-1.4323 -3.9426,-1.5269 -1.2309,0 -2.4033,0.2127 -3.5161,0.6391 -1.1128,0.4265 -2.095,1.0183 -2.9479,1.7767 -0.8529,0.7572 -1.5392,1.6573 -2.0602,2.6992 -0.5209,1.0419 -0.782,2.1783 -0.782,3.4093 v 12.9292 h -5.8958 z m 41.0313,13.2836 c 0,-1.8936 0.3668,-3.6939 1.1015,-5.3985 0.7336,-1.7046 1.7395,-3.1853 3.0188,-4.4399 1.2782,-1.2545 2.7825,-2.2492 4.5108,-2.9839 1.7282,-0.7336 3.587,-1.1004 5.5763,-1.1004 1.9893,0 3.8593,0.3668 5.6123,1.1004 1.7518,0.7347 3.2674,1.7294 4.5468,2.9839 1.2781,1.2546 2.284,2.7353 3.0188,4.4399 0.7336,1.7046 1.1004,3.5049 1.1004,5.3985 0,1.9421 -0.3668,3.7536 -1.1004,5.4346 -0.7348,1.6821 -1.7407,3.1617 -3.0188,4.4398 -1.2794,1.2794 -2.795,2.2852 -4.5468,3.02 -1.753,0.7336 -3.623,1.1004 -5.6123,1.1004 -1.9893,0 -3.8481,-0.3668 -5.5763,-1.1004 -1.7283,-0.7348 -3.2326,-1.7406 -4.5108,-3.02 -1.2793,-1.2781 -2.2852,-2.7577 -3.0188,-4.4398 -0.7347,-1.681 -1.1015,-3.4925 -1.1015,-5.4346 z m 5.8958,0.072 c 0,1.1364 0.2138,2.202 0.6391,3.1966 0.4264,0.9947 1.007,1.8588 1.7406,2.5924 0.7347,0.7347 1.5989,1.3142 2.5935,1.7406 0.9947,0.4265 2.0602,0.6391 3.1966,0.6391 1.1364,0 2.2019,-0.2126 3.1966,-0.6391 0.9946,-0.4264 1.8711,-1.0059 2.6284,-1.7406 0.7572,-0.7336 1.3502,-1.5977 1.7755,-2.5924 0.4264,-0.9946 0.6402,-2.0602 0.6402,-3.1966 0,-1.1375 -0.2138,-2.203 -0.6402,-3.1977 -0.4253,-0.9935 -1.0183,-1.87 -1.7755,-2.6284 -0.7573,-0.7572 -1.6338,-1.349 -2.6284,-1.7755 -0.9947,-0.4264 -2.0602,-0.639 -3.1966,-0.639 -1.1364,0 -2.2019,0.2126 -3.1966,0.639 -0.9946,0.4265 -1.8588,1.0183 -2.5935,1.7755 -0.7336,0.7584 -1.3142,1.6349 -1.7406,2.6284 -0.4253,0.9947 -0.6391,2.0602 -0.6391,3.1977 z m 44.4416,13.2837 h -5.8958 l -0.001,-44.157 h 5.8969 z m 15.4575,-13.3557 c 0,-1.8936 0.3668,-3.6939 1.1015,-5.3985 0.7336,-1.7046 1.7395,-3.1853 3.0188,-4.4399 1.2782,-1.2545 2.7826,-2.2492 4.5108,-2.9839 1.7283,-0.7336 3.587,-1.1004 5.5763,-1.1004 1.9893,0 3.8593,0.3668 5.6123,1.1004 1.7519,0.7347 3.2675,1.7294 4.5468,2.9839 1.2782,1.2546 2.2841,2.7353 3.0188,4.4399 0.7336,1.7046 1.1004,3.5049 1.1004,5.3985 0,1.9421 -0.3668,3.7536 -1.1004,5.4346 -0.7347,1.6821 -1.7406,3.1617 -3.0188,4.4398 -1.2793,1.2794 -2.7949,2.2852 -4.5468,3.02 -1.753,0.7336 -3.623,1.1004 -5.6123,1.1004 -1.9893,0 -3.848,-0.3668 -5.5763,-1.1004 -1.7282,-0.7348 -3.2326,-1.7406 -4.5108,-3.02 -1.2793,-1.2781 -2.2852,-2.7577 -3.0188,-4.4398 -0.7347,-1.681 -1.1015,-3.4925 -1.1015,-5.4346 z m 5.8959,0.072 c 0,1.1364 0.2137,2.202 0.639,3.1966 0.4265,0.9947 1.0071,1.8588 1.7407,2.5924 0.7347,0.7347 1.5988,1.3142 2.5935,1.7406 0.9946,0.4265 2.0601,0.6391 3.1965,0.6391 1.1365,0 2.202,-0.2126 3.1966,-0.6391 0.9947,-0.4264 1.8712,-1.0059 2.6284,-1.7406 0.7572,-0.7336 1.3502,-1.5977 1.7755,-2.5924 0.4265,-0.9946 0.6402,-2.0602 0.6402,-3.1966 0,-1.1375 -0.2137,-2.203 -0.6402,-3.1977 -0.4253,-0.9935 -1.0183,-1.87 -1.7755,-2.6284 -0.7572,-0.7572 -1.6337,-1.349 -2.6284,-1.7755 -0.9946,-0.4264 -2.0601,-0.639 -3.1966,-0.639 -1.1364,0 -2.2019,0.2126 -3.1965,0.639 -0.9947,0.4265 -1.8588,1.0183 -2.5935,1.7755 -0.7336,0.7584 -1.3142,1.6349 -1.7407,2.6284 -0.4253,0.9947 -0.639,2.0602 -0.639,3.1977 z m 43.8734,-0.072 c 0,2.3212 0.7696,4.2745 2.3088,5.861 1.5392,1.5865 3.5398,2.3797 6.0027,2.3797 2.463,0 4.4636,-0.7932 6.0028,-2.3797 1.5392,-1.5865 2.3088,-3.5398 2.3088,-5.861 0,-2.3673 -0.7696,-4.3206 -2.3088,-5.8598 -1.5392,-1.5392 -3.5398,-2.3088 -6.0028,-2.3088 -2.4629,0 -4.4635,0.7696 -6.0027,2.3088 -1.5392,1.5392 -2.3088,3.4925 -2.3088,5.8598 z m 17.6178,-13.2836 h 4.9012 v 27.7757 3.1257 c 0,1.8948 -0.3668,3.659 -1.1004,5.2928 -0.7348,1.6337 -1.7407,3.0548 -3.02,4.2621 -1.2782,1.2073 -2.7701,2.167 -4.4747,2.877 -1.7058,0.71 -3.5522,1.0655 -5.5415,1.0655 -2.131,0 -4.1912,-0.4613 -6.1805,-1.385 -1.9893,-0.9238 -3.6939,-1.8824 -5.1138,-2.8771 0.6627,-0.8056 1.3141,-1.6101 1.9532,-2.4157 0.6391,-0.8045 1.2906,-1.6101 1.9533,-2.4146 0.9474,0.71 2.0478,1.3851 3.3035,2.0242 1.2546,0.6391 2.5687,0.9586 3.9426,0.9586 1.2309,0 2.3561,-0.2126 3.3743,-0.6391 1.0183,-0.4264 1.906,-1.0059 2.6633,-1.7406 0.7583,-0.7336 1.3378,-1.6101 1.7406,-2.6284 0.4028,-1.0182 0.6042,-2.1187 0.6042,-3.3035 v -4.7594 c 0.0945,-0.2363 0.2014,-0.4613 0.3196,-0.6751 0.1181,-0.2126 0.225,-0.4377 0.3195,-0.674 -0.1418,0.1891 -0.4501,0.4737 -0.9237,0.8518 -0.4737,0.3792 -1.0892,0.746 -1.8464,1.1015 -0.7584,0.3556 -1.6574,0.6751 -2.6993,0.9587 -1.0419,0.2846 -2.2031,0.4264 -3.4813,0.4264 -1.9892,0 -3.8593,-0.3668 -5.6123,-1.1015 -1.7518,-0.7336 -3.2674,-1.7283 -4.5456,-2.9828 -1.2793,-1.2557 -2.2852,-2.7229 -3.0199,-4.405 -0.7337,-1.681 -1.1005,-3.4689 -1.1005,-5.3626 0,-1.8475 0.3668,-3.623 1.1005,-5.3287 0.7347,-1.7046 1.7406,-3.1966 3.0199,-4.4748 1.2782,-1.2793 2.7938,-2.2976 4.5456,-3.0548 1.753,-0.7572 3.6231,-1.1364 5.6123,-1.1364 1.2782,0 2.463,0.189 3.5522,0.5682 1.0891,0.3792 2.0365,0.7932 2.841,1.2433 0.8056,0.4501 1.4447,0.8877 1.9184,1.3142 0.4737,0.4264 0.71,0.71 0.71,0.8517 0,-0.5209 0.0473,-1.0655 0.1429,-1.6337 0.0945,-0.5682 0.1418,-1.1364 0.1418,-1.7046 z m 22.3479,-10.3009 c 0,-1.0891 0.3781,-1.9893 1.1364,-2.6992 0.7573,-0.71 1.6101,-1.0656 2.5575,-1.0656 0.899,0 1.7283,0.3556 2.4855,1.0656 0.7584,0.7099 1.1375,1.6101 1.1375,2.6992 0,1.0892 -0.3791,1.978 -1.1375,2.6644 -0.7572,0.6863 -1.5865,1.0295 -2.4855,1.0295 -0.9474,0 -1.8002,-0.3432 -2.5575,-1.0295 -0.7583,-0.6864 -1.1364,-1.5752 -1.1364,-2.6644 z m 6.535,36.9402 h -5.8959 v -26.6393 h 5.8959 z m 22.7744,-13.3557 c 0,2.3212 0.7696,4.2745 2.3088,5.861 1.5392,1.5865 3.5397,2.3797 6.0027,2.3797 2.463,0 4.4635,-0.7932 6.0028,-2.3797 1.5392,-1.5865 2.3088,-3.5398 2.3088,-5.861 0,-2.3673 -0.7696,-4.3206 -2.3088,-5.8598 -1.5393,-1.5392 -3.5398,-2.3088 -6.0028,-2.3088 -2.463,0 -4.4635,0.7696 -6.0027,2.3088 -1.5392,1.5392 -2.3088,3.4925 -2.3088,5.8598 z m -5.9668,0.072 c 0,-1.8475 0.3668,-3.623 1.1004,-5.3287 0.7348,-1.7046 1.7407,-3.1966 3.02,-4.4748 1.2781,-1.2793 2.7937,-2.2976 4.5456,-3.0548 1.753,-0.7572 3.623,-1.1364 5.6123,-1.1364 1.2782,0 2.463,0.189 3.5522,0.5682 1.0891,0.3792 2.0365,0.7932 2.841,1.2433 0.8056,0.4501 1.4447,0.8877 1.9184,1.3142 0.4737,0.4264 0.71,0.71 0.71,0.8517 0,-0.5209 0.0472,-1.0655 0.1429,-1.6337 0.0945,-0.5682 0.1417,-1.1364 0.1417,-1.7046 h 4.9012 v 26.6393 h -5.1858 v -2.2728 -0.6402 c 0,0.1428 -0.2127,0.4028 -0.6391,0.7819 -0.4265,0.3792 -1.0183,0.7696 -1.7755,1.1725 -0.7584,0.4016 -1.6934,0.7696 -2.8062,1.1004 -1.1128,0.3319 -2.3797,0.4973 -3.8008,0.4973 -1.9893,0 -3.8593,-0.3668 -5.6123,-1.1004 -1.7519,-0.7348 -3.2675,-1.7406 -4.5456,-3.02 -1.2793,-1.2781 -2.2852,-2.7577 -3.02,-4.4398 -0.7336,-1.681 -1.1004,-3.4689 -1.1004,-5.3626 z" />
  </g>
</svg>
